<?xml version="1.0" encoding="UTF-8"?>
<svg width="800px" height="600px" viewBox="0 0 800 600" xmlns="http://www.w3.org/2000/svg" xmlns:xlink="http://www.w3.org/1999/xlink" version="1.1">
 <!-- Generated by Pixelmator Pro 1.8 -->
 <g id="XMLID_3_">
  <g id="XMLID_351_">
   <g id="XMLID_360_">
    <g id="XMLID_370_">
     <path id="XMLID_392_" d="M232 209 L232 280.7 268 280.7 268 298.6 214 298.6 214 209 Z" fill="#3578e5" fill-opacity="1" stroke="none"/>
     <path id="XMLID_390_" d="M407.6 299.2 C395.1 299.2 384.4 294.8 375.5 286 366.6 277.1 362.2 266.4 362.2 253.9 362.2 241.4 366.6 230.7 375.5 221.7 384.4 212.8 395.1 208.3 407.6 208.3 L407.5 208.5 C421.3 208.5 432.3 214.6 439.7 221.8 L426.9 234.6 C421.5 229.3 415.1 226.6 407.6 226.6 400 226.6 393.6 229.3 388.4 234.6 383.1 240 380.4 246.4 380.4 253.9 380.4 261.4 383.1 267.8 388.4 273.2 393.7 278.5 400.1 281.1 407.6 281.1 415.2 281.1 421.6 278.4 426.9 273.1 L439.7 285.9 C432.5 293.2 421.6 299.2 407.6 299.2 Z" fill="#3578e5" fill-opacity="1" stroke="none"/>
     <path id="XMLID_387_" d="M483.3 207.1 L524.2 298.5 504.7 298.5 498.6 284.9 468 284.9 461.9 298.5 442.5 298.5 Z M491.6 269 L483.4 250.1 475.1 269 Z" fill="#3578e5" fill-opacity="1" stroke="none"/>
     <path id="XMLID_385_" d="M550 209 L550 280.7 586 280.7 586 298.6 532 298.6 532 209 Z" fill="#3578e5" fill-opacity="1" stroke="none"/>
     <g id="XMLID_371_">
      <path id="XMLID_383_" d="M231 307.2 L231 341.2 259.4 341.2 259.4 307.2 276.4 307.2 276.4 392.2 259.4 392.2 259.4 358.1 231 358.1 231 392.2 214 392.2 214 307.2 Z" fill="#3578e5" fill-opacity="1" stroke="none"/>
      <path id="XMLID_380_" d="M357.5 319.2 C366 327.7 370.2 337.9 370.2 349.7 370.2 361.6 366 371.8 357.5 380.2 349.1 388.6 338.9 392.8 327 392.8 315.1 392.8 304.9 388.6 296.5 380.2 288.1 371.8 283.8 361.6 283.8 349.7 283.8 337.9 288 327.7 296.5 319.2 305 310.7 315.1 306.5 327 306.5 338.9 306.5 349 310.8 357.5 319.2 Z M308.7 331.4 C303.6 336.5 301.1 342.6 301.1 349.7 301.1 356.8 303.6 362.9 308.7 368 313.7 373 319.8 375.5 327 375.5 334.1 375.5 340.1 373 345.2 368 350.3 363 352.8 356.9 352.8 349.7 352.8 342.6 350.3 336.5 345.2 331.4 340.1 326.3 334.1 323.8 327 323.8 319.8 323.8 313.7 326.3 308.7 331.4 Z" fill="#3578e5" fill-opacity="1" stroke="none"/>
      <path id="XMLID_377_" d="M447.9 319.2 C456.4 327.7 460.6 337.9 460.6 349.7 460.6 361.6 456.4 371.8 447.9 380.2 439.5 388.6 429.3 392.8 417.4 392.8 405.5 392.8 395.3 388.6 386.9 380.2 378.5 371.8 374.2 361.6 374.2 349.7 374.2 337.9 378.4 327.7 386.9 319.2 395.4 310.7 405.5 306.5 417.4 306.5 429.3 306.5 439.4 310.8 447.9 319.2 Z M399.1 331.4 C394 336.5 391.5 342.6 391.5 349.7 391.5 356.8 394 362.9 399.1 368 404.1 373 410.2 375.5 417.4 375.5 424.5 375.5 430.5 373 435.6 368 440.7 363 443.2 356.9 443.2 349.7 443.2 342.6 440.7 336.5 435.6 331.4 430.5 326.3 424.5 323.8 417.4 323.8 410.2 323.8 404.1 326.3 399.1 331.4 Z" fill="#3578e5" fill-opacity="1" stroke="none"/>
      <path id="XMLID_374_" d="M467.9 366.7 L467.9 307.2 497.7 307.2 C506 307.2 513 310.1 518.8 315.9 524.7 321.7 527.6 328.8 527.6 337 527.6 345.3 524.7 352.3 518.8 358 512.9 363.8 505.9 366.7 497.7 366.7 L485 366.7 485 392.2 467.9 392.2 Z M497.7 324.1 L485 324.1 485 349.7 497.8 349.8 C504.8 349.8 510.6 343.9 510.6 337 510.6 330.1 504.7 324.1 497.7 324.1 Z" fill="#3578e5" fill-opacity="1" stroke="none"/>
      <path id="XMLID_372_" d="M558.7 375.5 C563.4 375.5 568.6 371.6 568.6 366.9 568.6 359.1 558.2 358.1 552.3 356 541.9 352.5 532.8 344 532.8 332.4 532.8 318.1 544.4 306.5 558.8 306.5 571.9 306.5 582.7 316.2 584.5 328.8 L567.5 332.4 C567.5 327.7 563.6 323.8 558.9 323.8 554.2 323.8 550.2 327.7 550.2 332.4 550.2 340.1 559.9 342.1 565.8 343.8 576.5 346.9 586 355.1 586 366.9 586 381.2 573.1 392.8 558.8 392.8 545.7 392.8 533.8 383.2 531.8 370.5 L548.8 366.9 C548.8 371.7 554 375.6 558.7 375.5 Z" fill="#3578e5" fill-opacity="1" stroke="none"/>
     </g>
    </g>
    <g id="XMLID_361_">
     <path id="XMLID_369_" d="M357.3 254.3 C357 254.1 356.8 253.9 356.5 253.8 347 248.6 337 245.2 326.4 243.2 318.4 241.7 310.4 241 302.3 240.9 299.5 240.9 296.6 240.9 293.8 241 293.2 241 293.1 241.1 293.1 241.7 293.1 244.7 293 247.7 293 250.6 293 251.2 293.1 251.3 293.7 251.3 295.6 251.5 297.5 251.6 299.4 251.9 301.1 252.2 302.8 252.7 304.5 253.2 305.9 253.6 307.3 254.2 308.6 254.8 311.7 256.3 314.7 258.3 317.3 260.6 320.4 263.3 323.5 266.2 326.6 269 330.5 272.6 334.6 276.1 339.2 278.8 341.5 280.1 343.9 281.3 346.2 282.5 346.6 282.7 346.9 282.6 347.2 282.3 352.4 275.9 355.6 268.7 356.9 260.6 357.1 259.1 357.2 257.5 357.4 256 357.4 255.9 357.4 255.7 357.5 255.6 357.3 255.1 357.3 254.7 357.3 254.3 Z" fill="#ed8333" fill-opacity="1" stroke="none"/>
     <path id="XMLID_368_" d="M313.9 298.7 C314.6 298.6 315.3 298.6 316 298.5 326.1 297.7 334.9 293.8 342.5 287.1 343.1 286.6 343.7 286 344.3 285.4 344.7 285 344.7 284.6 344.1 284.4 337 281.1 330.8 276.4 325.1 271.1 321.9 268.1 318.7 265.2 315.4 262.3 313 260.2 310.3 258.4 307.4 257 305.2 256 302.9 255.1 300.5 254.7 298.9 254.4 297.4 254.2 295.8 254 295.2 253.9 294.6 253.9 294 253.8 293.3 253.8 293.2 253.9 293.2 254.6 293.6 260.2 294.4 265.6 295.7 271.1 297.3 277.7 299.7 284 303.1 289.9 304.7 292.7 306.5 295.4 308.6 297.8 309 298.3 309.5 298.6 310.1 298.5 310.4 298.5 310.7 298.6 311 298.6 311.9 298.7 312.9 298.7 313.9 298.7 Z" fill="#ed8333" fill-opacity="1" stroke="none"/>
     <path id="XMLID_367_" d="M267.4 255.2 C267.5 255.9 267.5 256.6 267.6 257.3 267.9 261.5 268.9 265.6 270.3 269.5 270.4 269.8 270.5 270 270.9 270 271.3 270 271.4 269.7 271.4 269.4 272.4 265.2 274.3 261.4 277.2 258.1 280 255 283.4 252.7 287.5 251.7 288.2 251.5 288.9 251.4 289.6 251.3 290 251.2 290.2 251 290.2 250.6 290.2 247.6 290.3 244.6 290.3 241.7 290.3 241.2 290.1 241 289.7 241 283.7 241.4 277.8 242.3 272.3 244.8 270.9 245.4 269.7 246.3 268.3 247.1 268 247.3 267.9 247.6 267.8 247.9 267.7 249.1 267.6 250.4 267.5 251.6 267.5 251.8 267.4 252 267.4 252.1 Z" fill="#ed8333" fill-opacity="1" stroke="none"/>
     <path id="XMLID_366_" d="M310.9 208.8 C310.5 208.8 310.2 208.9 309.8 208.9 309.1 208.9 308.6 209.1 308 209.5 305.3 211.2 303.1 213.3 301.2 215.8 299 218.7 297.4 221.9 296.1 225.3 295.9 225.8 296.2 226.2 296.7 226.1 298.5 225.9 300.2 225.7 302 225.3 306.6 224.4 311 222.7 315.3 220.9 318.8 219.4 322.3 217.9 325.8 216.6 327.8 215.8 329.9 215.3 332 214.7 L332.1 214.7 C332.4 214.6 332.7 214.6 332.7 214.2 332.7 213.9 332.5 213.7 332.2 213.6 329.8 212.4 327.3 211.4 324.7 210.7 321.2 209.7 317.7 209.1 314.1 209 314 209 313.8 209 313.7 208.9 312.9 208.8 311.9 208.8 310.9 208.8 Z" fill="#ed8333" fill-opacity="1" stroke="none"/>
     <path id="XMLID_365_" d="M302 238 C306.1 238.2 310.2 238.4 314.2 238.8 326.6 239.9 338.7 242.7 350.1 247.7 352.1 248.6 354 249.6 356 250.5 356.3 250.6 356.6 250.9 356.9 250.6 357.1 250.4 357.1 250.1 357.1 249.8 356.6 244.3 355.2 239.1 352.8 234.2 349.4 227.2 344.5 221.5 338.2 217 337.7 216.6 337.2 216.5 336.6 216.6 333.2 217 329.9 217.8 326.7 219.1 322.5 220.8 318.3 222.6 314.1 224.3 310.1 225.9 306 227.3 301.7 228.1 299.7 228.4 297.6 228.6 295.5 228.8 295.1 228.8 294.8 229 294.7 229.4 294.1 232 293.6 234.6 293.2 237.3 293.1 238 293.3 238.2 294 238.2 296.5 238.2 299 238.1 301.5 238.1 L301.9 238.1 C302 238.1 302 238 302 238 Z" fill="#ed8333" fill-opacity="1" stroke="none"/>
     <path id="XMLID_364_" d="M273.4 274.8 C273.2 275.7 273.5 276.5 274 277.2 280.8 287.9 290.4 294.8 302.8 297.6 303.1 297.7 303.3 297.8 303.6 297.7 303.8 297.7 304.1 297.6 304.2 297.5 304.3 297.4 304.2 297 304.1 296.9 303.3 295.7 302.5 294.6 301.7 293.4 297.9 287.5 295.3 281 293.4 274.3 291.9 268.7 290.9 263.1 290.4 257.3 290.3 256.4 290.3 255.5 290.2 254.6 290.2 254 290 253.8 289.3 253.9 285.1 254.6 281.6 256.6 278.9 259.8 275.5 263.7 273.6 268.3 273.2 273.5 273.4 274.1 273.4 274.5 273.4 274.8 Z" fill="#ed8333" fill-opacity="1" stroke="none"/>
     <path id="XMLID_363_" d="M268.8 242.6 C268.8 243.1 269.2 243.3 269.6 243.1 270.1 242.9 270.6 242.6 271.1 242.4 274.8 240.7 278.7 239.7 282.7 239.1 285 238.8 287.4 238.6 289.7 238.3 290.4 238.2 290.5 238.2 290.6 237.5 291.1 234.9 291.5 232.3 292 229.7 292.1 229 292 228.8 291.3 228.8 287.8 228.5 284.6 227.4 281.9 225.2 281.3 224.7 280.8 224.2 280.3 223.6 279.8 223 279.6 223 279.1 223.6 275.4 227.6 272.5 232.2 270.5 237.3 269.8 239 269.3 240.7 268.8 242.5 268.8 242.4 268.8 242.6 268.8 242.6 Z" fill="#ed8333" fill-opacity="1" stroke="none"/>
     <path id="XMLID_362_" d="M292.3 226.2 C293 226.2 293.1 226.1 293.3 225.5 294.9 220.8 297.1 216.5 300.3 212.8 300.7 212.3 301.2 211.8 301.6 211.3 301.8 211.1 302 210.8 301.8 210.5 301.6 210.2 301.3 210.2 301 210.3 296.6 211.5 292.4 213.3 288.5 215.7 286.3 217.1 284.3 218.6 282.3 220.3 281.7 220.8 281.7 221 282.2 221.6 284.1 223.9 286.6 225.1 289.4 225.7 290.4 226 291.4 226.1 292.3 226.2 Z" fill="#ed8333" fill-opacity="1" stroke="none"/>
    </g>
   </g>
   <path id="XMLID_359_" d="M384.4 317.6 L384.8 317.2 C386.1 315.9 387.4 314.7 388.8 313.6 386 307.7 383.3 301.9 380.6 295.9 380.3 295.2 380 294.4 379.9 293.6 377.6 292 375.4 290.2 373.4 288.1 370.9 285.6 368.8 283 366.9 280.2 368.4 283.5 369.9 286.7 371.4 290 372.1 291.5 372.4 293.8 371.7 295.2 368.2 303 364.6 310.7 360.9 318.6 362.4 320.2 363.7 321.8 364.9 323.5 368.5 315.7 372.2 307.9 376 299.8 378.9 305.8 381.7 311.7 384.4 317.6 Z" fill="#3578e5" fill-opacity="1" stroke="none"/>
   <path id="XMLID_358_" d="M403.9 342.3 C406.1 337.5 408.3 332.6 410.6 327.8 407.3 328.8 404.4 330.6 401.7 333.1 401.3 334 400.9 334.9 400.5 335.8 400.4 336 400.1 336.1 399.5 336.4 399.4 336.2 399.3 336 399.2 335.9 397.7 337.9 396.5 340 395.7 342.2 395.8 342.4 395.8 342.5 395.9 342.7 396.2 343.4 396.2 344.6 395.9 345.3 395.4 346.3 395 347.3 394.5 348.4 394.5 348.9 394.4 349.3 394.4 349.8 394.4 353 395 355.9 396.1 358.6 397.3 356 398.5 353.5 399.7 350.8 403 357.9 406.2 364.7 409.3 371.2 411.5 372 413.8 372.4 416.2 372.5 412.2 363.9 408.2 355.3 404.2 346.7 403.8 345.4 403.4 343.4 403.9 342.3 Z" fill="#3578e5" fill-opacity="1" stroke="none"/>
   <path id="XMLID_357_" d="M476.5 295.9 C476.1 295.8 475.7 295.7 475.4 295.6 474.5 292.7 475.3 290.3 476.7 288 L469.9 288 467.4 293.7 C467.4 294 467.3 294.3 467.2 294.6 463 303.8 458.8 312.9 454.4 322.2 455.8 324 457 325.9 458.1 327.9 460.4 323.1 462.6 318.2 464.9 313.4 L464.9 304.3 469.2 304.3 C469.6 303.4 470 302.5 470.4 301.7 470.6 301.4 470.9 301.1 471.2 300.7 472.2 301.9 472.8 303.1 473.1 304.3 L480.1 304.3 C481.6 298.9 483.1 293.4 484.7 288 L478.7 288 C478 290.6 477.3 293.2 476.5 295.9 Z" fill="#3578e5" fill-opacity="1" stroke="none"/>
   <path id="XMLID_356_" d="M463.5 347.1 C463.5 348 463.6 348.9 463.6 349.8 463.6 358.9 461.3 367 456.6 374.2 456.7 376.6 456.4 379.1 455.8 381.8 452.2 398.3 449.6 415 446.5 431.7 446.3 432.6 446 433.5 445.6 435.1 443.5 430.6 441.7 426.8 439.9 422.9 436 414.5 432 406.2 428.2 397.7 427.8 396.9 427.6 395.8 427.6 394.7 425 395.3 422.4 395.6 419.6 395.7 419.3 400.3 415.6 405 413.4 409.6 409 419.1 404.6 428.5 399.8 438.6 398.8 436.6 398.1 435.3 397.4 433.9 391.8 421.9 386.1 409.8 380.6 397.7 380 396.3 379.5 394.2 380.1 392.9 381.7 389.4 383.3 385.9 384.9 382.5 384.8 382.4 384.8 382.4 384.7 382.3 383.2 380.8 381.9 379.3 380.7 377.8 379.2 381.1 377.6 384.4 376 387.8 375 385.7 374.2 384.3 373.5 382.8 371.6 378.8 369.8 374.9 367.9 370.9 366.8 372.9 365.6 374.8 364.3 376.7 366.7 381.8 369 386.8 371.3 391.9 371.9 393.2 372.4 395.2 371.9 396.4 366.1 409.1 360.2 421.7 353.8 435.3 351.5 422.3 349.4 410.4 347.2 398.5 346.8 396.3 346.3 394 345.9 391.8 344.2 392.6 342.4 393.3 340.5 393.8 343.4 408.8 346 423.8 348.3 438.9 349.1 444.1 349.7 449.3 350.5 454.5 L351.2 454.5 C359.3 437.1 367.5 419.7 376 401.6 384.1 418.8 391.7 435.2 399.8 452.4 407.9 435.1 415.6 418.7 423.6 401.6 432.1 419.7 440.2 437.1 448.9 455.6 450.3 446 451.3 437.6 452.7 429.3 456.2 407.9 460.3 386.7 464.9 365.6 L464.9 341.5 C464.4 343.4 464 345.3 463.5 347.1 Z" fill="#3578e5" fill-opacity="1" stroke="none"/>
   <path id="XMLID_355_" d="M328.7 300.2 C329.2 301.3 329.8 302.5 330.3 303.6 332.6 303.8 334.9 304.1 337.1 304.5 335.9 301.9 334.7 299.3 333.5 296.7 328.9 299 323.9 300.5 318.6 301.2 318.9 302.1 319.1 303.1 319.4 304 321.8 303.6 324.3 303.4 326.8 303.4 327.2 302.5 327.8 301.4 328.7 300.2 Z" fill="#3578e5" fill-opacity="1" stroke="none"/>
   <path id="XMLID_354_" d="M282.5 171.2 L302.7 171.2 C312 171.3 321.2 171.5 330.5 171.4 333.1 171.4 334.2 172.2 335 174.7 339.2 189.4 342.7 204.2 345.5 219.1 348.4 221.8 350.8 224.9 352.9 228.2 352.6 226.2 352.3 224.1 351.9 222.1 348.3 206.4 344.5 190.8 340.7 175.1 340.5 174.1 340.4 173 340.1 171.4 L397.4 171.4 C397.4 180.3 397.5 188.9 397.4 197.4 397.4 200.3 397.3 203.2 397.3 206.2 399.2 205.8 401 205.5 403 205.4 403 195.7 402.8 185.9 402.8 176.2 402.8 174.8 402.8 173.3 402.8 171.5 L459.7 171.5 C457.7 179.3 455.3 187 453.7 194.8 450.6 209.4 447.9 224 445 238.7 444.8 239.9 444.6 241.1 444.1 242.2 439.5 252.1 434.9 262 430.1 272.2 L434.4 276.5 C438.3 268 442.3 259.5 446.3 251 446.5 250.6 446.8 250.1 447.4 249.1 448.7 251.9 449.8 254.2 450.8 256.5 452 259.1 453.2 261.7 454.4 264.2 L457.4 257.4 C457.2 257.1 457 256.7 456.8 256.4 451.1 246.3 449.8 236.5 452.7 225.3 457.1 208.6 460.4 191.6 464.3 174.7 464.6 173.5 466.3 171.7 467.3 171.7 483.7 171.5 500.1 171.6 516.7 171.6 516.4 172.7 516.3 173.5 516 174.2 509.5 193.4 502.6 212.1 496 229 L500.1 238.2 C507.2 217.1 514.7 196.1 522 175 522.5 173.7 523.9 172.1 525.2 171.7 527.5 171.1 530 171.2 532.4 171.3 539.9 171.4 545.2 166.8 545.7 159.8 546.3 151.4 541.9 145.6 534.1 144.7 532.2 144.5 530.3 144.5 528.5 144.5 442 144.5 355.6 144.5 269.1 144.5 267.6 144.5 266.1 144.5 264.7 144.7 257.7 145.6 253.1 151.5 253.5 159.1 253.9 166.1 259 171.4 265.7 171.7 268 171.8 270.3 171.9 272.6 171.7 275 171.5 276.1 172.4 277 174.7 280.9 185.6 285.4 196.3 289 207.2 289.4 208.6 289.9 209.9 290.3 211.3 291.9 210.5 293.6 209.7 295.3 209.1 291.3 196.4 287 183.8 282.5 171.2 Z" fill="#3578e5" fill-opacity="1" stroke="none"/>
   <path id="XMLID_353_" d="M345.6 336.4 C346.3 337.9 347 339.5 347.7 341 348.4 342.6 348.4 344.9 347.8 346.5 345.6 351.8 343 356.9 340.1 363.1 338.3 355.4 336.8 348.8 335.1 342.2 333.9 337.2 332.6 332.2 331.4 327.2 330 326.9 328.5 326.8 327 326.8 326.5 326.8 326 326.8 325.5 326.9 329.2 341.5 332.7 356.1 335.9 370.8 338.5 369.7 340.9 368.1 343.1 365.9 347.6 361.4 349.9 356.1 349.9 349.7 349.9 344.6 348.5 340.3 345.6 336.4 Z" fill="#3578e5" fill-opacity="1" stroke="none"/>
   <path id="XMLID_352_" d="M402.6 230.1 C400.6 230.5 398.8 231.1 397 232 397 234 396.9 235.9 396.9 237.9 396.9 239.5 397 241.3 396.3 242.6 392.9 250 389.5 257.4 385.9 265 386.9 266.9 388.2 268.7 389.7 270.4 393 263.4 396.3 256.3 399.7 249 404.3 258.9 408.7 268.3 413.1 277.6 415.1 277.2 416.9 276.5 418.7 275.6 416.4 270.4 414 265.3 411.3 260.5 406 250.7 403.2 240.7 402.6 230.1 Z" fill="#3578e5" fill-opacity="1" stroke="none"/>
  </g>
 </g>
</svg>
